<mxfile host="app.diagrams.net" agent="Mozilla/5.0 (Windows NT 10.0; Win64; x64) AppleWebKit/537.36 (KHTML, like Gecko) Chrome/129.0.0.0 Safari/537.36 Edg/129.0.0.0" version="24.7.16">
  <diagram name="Page-1" id="cnUNx-DXpwfmKpkT3m1X">
    <mxGraphModel dx="1718" dy="869" grid="1" gridSize="10" guides="1" tooltips="1" connect="1" arrows="1" fold="1" page="1" pageScale="1" pageWidth="850" pageHeight="1100" math="0" shadow="0">
      <root>
        <mxCell id="0" />
        <mxCell id="1" parent="0" />
        <mxCell id="XEAG89gDOmoKOSxMCABa-23" value="" style="rounded=0;whiteSpace=wrap;html=1;" vertex="1" parent="1">
          <mxGeometry x="220" y="30" width="390" height="710" as="geometry" />
        </mxCell>
        <mxCell id="XEAG89gDOmoKOSxMCABa-1" value="Buffer" style="whiteSpace=wrap;html=1;aspect=fixed;" vertex="1" parent="1">
          <mxGeometry x="40" y="40" width="80" height="80" as="geometry" />
        </mxCell>
        <mxCell id="XEAG89gDOmoKOSxMCABa-2" value="&lt;div&gt;Daily&amp;nbsp;&lt;/div&gt;&lt;div&gt;Report&lt;/div&gt;Form2" style="whiteSpace=wrap;html=1;aspect=fixed;" vertex="1" parent="1">
          <mxGeometry x="680" y="40" width="80" height="80" as="geometry" />
        </mxCell>
        <mxCell id="XEAG89gDOmoKOSxMCABa-5" value="" style="shape=cylinder3;whiteSpace=wrap;html=1;boundedLbl=1;backgroundOutline=1;size=15;fillColor=#bac8d3;strokeColor=#23445d;" vertex="1" parent="1">
          <mxGeometry x="20" y="160" width="120" height="100" as="geometry" />
        </mxCell>
        <mxCell id="XEAG89gDOmoKOSxMCABa-4" style="edgeStyle=orthogonalEdgeStyle;rounded=0;orthogonalLoop=1;jettySize=auto;html=1;exitX=0.5;exitY=1;exitDx=0;exitDy=0;entryX=0.5;entryY=0.2;entryDx=0;entryDy=0;entryPerimeter=0;" edge="1" parent="1" source="XEAG89gDOmoKOSxMCABa-1" target="XEAG89gDOmoKOSxMCABa-5">
          <mxGeometry relative="1" as="geometry">
            <mxPoint x="80" y="160" as="targetPoint" />
          </mxGeometry>
        </mxCell>
        <mxCell id="XEAG89gDOmoKOSxMCABa-10" value="Kintone database" style="text;html=1;align=center;verticalAlign=middle;resizable=0;points=[];autosize=1;strokeColor=none;fillColor=none;fontStyle=1;labelBackgroundColor=#000000;labelBorderColor=default;textShadow=1;fontColor=#FFFFFF;" vertex="1" parent="1">
          <mxGeometry x="20" y="200" width="120" height="30" as="geometry" />
        </mxCell>
        <mxCell id="XEAG89gDOmoKOSxMCABa-12" value="buffer_records_api" style="shape=cylinder3;whiteSpace=wrap;html=1;boundedLbl=1;backgroundOutline=1;size=15;fillColor=#d5e8d4;strokeColor=#82b366;" vertex="1" parent="1">
          <mxGeometry x="50" y="280" width="110" height="100" as="geometry" />
        </mxCell>
        <mxCell id="XEAG89gDOmoKOSxMCABa-11" value="Table" style="text;html=1;align=center;verticalAlign=middle;resizable=0;points=[];autosize=1;strokeColor=none;fillColor=none;fontStyle=1;fontColor=#FFFF00;labelBackgroundColor=#00CC00;fontSize=17;spacing=1;spacingLeft=0;labelBorderColor=#00CC00;textShadow=1;strokeWidth=1;" vertex="1" parent="1">
          <mxGeometry x="70" y="350" width="60" height="30" as="geometry" />
        </mxCell>
        <mxCell id="XEAG89gDOmoKOSxMCABa-15" style="edgeStyle=orthogonalEdgeStyle;rounded=0;orthogonalLoop=1;jettySize=auto;html=1;exitX=0.5;exitY=1;exitDx=0;exitDy=0;exitPerimeter=0;" edge="1" parent="1" source="XEAG89gDOmoKOSxMCABa-5">
          <mxGeometry relative="1" as="geometry">
            <mxPoint x="101" y="290" as="targetPoint" />
          </mxGeometry>
        </mxCell>
        <mxCell id="XEAG89gDOmoKOSxMCABa-16" value="" style="group" vertex="1" connectable="0" parent="1">
          <mxGeometry x="520" y="120" width="80" height="91" as="geometry" />
        </mxCell>
        <mxCell id="XEAG89gDOmoKOSxMCABa-9" value="lastRecords&lt;div&gt;&lt;br&gt;&lt;/div&gt;" style="shape=cylinder3;whiteSpace=wrap;html=1;boundedLbl=1;backgroundOutline=1;size=15;fillColor=#d5e8d4;strokeColor=#82b366;" vertex="1" parent="XEAG89gDOmoKOSxMCABa-16">
          <mxGeometry width="80" height="90" as="geometry" />
        </mxCell>
        <mxCell id="XEAG89gDOmoKOSxMCABa-17" value="" style="group" vertex="1" connectable="0" parent="1">
          <mxGeometry x="520" y="220" width="80" height="91" as="geometry" />
        </mxCell>
        <mxCell id="XEAG89gDOmoKOSxMCABa-18" value="lastProcess&lt;div&gt;&lt;br&gt;&lt;/div&gt;&lt;div&gt;&lt;br&gt;&lt;/div&gt;" style="shape=cylinder3;whiteSpace=wrap;html=1;boundedLbl=1;backgroundOutline=1;size=15;fillColor=#d5e8d4;strokeColor=#82b366;" vertex="1" parent="XEAG89gDOmoKOSxMCABa-17">
          <mxGeometry width="80" height="90" as="geometry" />
        </mxCell>
        <mxCell id="XEAG89gDOmoKOSxMCABa-20" value="" style="group" vertex="1" connectable="0" parent="1">
          <mxGeometry x="520" y="330" width="80" height="91" as="geometry" />
        </mxCell>
        <mxCell id="XEAG89gDOmoKOSxMCABa-21" value="operationTime&lt;div&gt;&lt;br&gt;&lt;/div&gt;&lt;div&gt;&lt;br&gt;&lt;/div&gt;" style="shape=cylinder3;whiteSpace=wrap;html=1;boundedLbl=1;backgroundOutline=1;size=15;fillColor=#d5e8d4;strokeColor=#82b366;" vertex="1" parent="XEAG89gDOmoKOSxMCABa-20">
          <mxGeometry width="80" height="90" as="geometry" />
        </mxCell>
        <mxCell id="XEAG89gDOmoKOSxMCABa-25" value="" style="group" vertex="1" connectable="0" parent="1">
          <mxGeometry x="520" y="430" width="80" height="91" as="geometry" />
        </mxCell>
        <mxCell id="XEAG89gDOmoKOSxMCABa-26" value="&lt;div&gt;WorkerName&lt;/div&gt;&lt;div&gt;&lt;br&gt;&lt;/div&gt;&lt;div&gt;&lt;br&gt;&lt;/div&gt;" style="shape=cylinder3;whiteSpace=wrap;html=1;boundedLbl=1;backgroundOutline=1;size=15;fillColor=#d5e8d4;strokeColor=#82b366;" vertex="1" parent="XEAG89gDOmoKOSxMCABa-25">
          <mxGeometry width="80" height="90" as="geometry" />
        </mxCell>
        <mxCell id="XEAG89gDOmoKOSxMCABa-28" value="" style="group" vertex="1" connectable="0" parent="1">
          <mxGeometry x="520" y="530" width="80" height="91" as="geometry" />
        </mxCell>
        <mxCell id="XEAG89gDOmoKOSxMCABa-29" value="&lt;div&gt;dailyform2&lt;/div&gt;&lt;div&gt;&lt;br&gt;&lt;/div&gt;&lt;div&gt;&lt;br&gt;&lt;/div&gt;" style="shape=cylinder3;whiteSpace=wrap;html=1;boundedLbl=1;backgroundOutline=1;size=15;fillColor=#d5e8d4;strokeColor=#82b366;" vertex="1" parent="XEAG89gDOmoKOSxMCABa-28">
          <mxGeometry width="80" height="90" as="geometry" />
        </mxCell>
        <mxCell id="XEAG89gDOmoKOSxMCABa-31" value="" style="group" vertex="1" connectable="0" parent="1">
          <mxGeometry x="520" y="630" width="80" height="91" as="geometry" />
        </mxCell>
        <mxCell id="XEAG89gDOmoKOSxMCABa-32" value="&lt;div&gt;isSend&lt;/div&gt;&lt;div&gt;&lt;br&gt;&lt;/div&gt;&lt;div&gt;&lt;br&gt;&lt;/div&gt;" style="shape=cylinder3;whiteSpace=wrap;html=1;boundedLbl=1;backgroundOutline=1;size=15;fillColor=#d5e8d4;strokeColor=#82b366;" vertex="1" parent="XEAG89gDOmoKOSxMCABa-31">
          <mxGeometry width="80" height="90" as="geometry" />
        </mxCell>
        <mxCell id="XEAG89gDOmoKOSxMCABa-34" style="edgeStyle=orthogonalEdgeStyle;rounded=0;orthogonalLoop=1;jettySize=auto;html=1;exitX=1;exitY=0.5;exitDx=0;exitDy=0;exitPerimeter=0;entryX=-0.007;entryY=0.491;entryDx=0;entryDy=0;entryPerimeter=0;" edge="1" parent="1" source="XEAG89gDOmoKOSxMCABa-12" target="XEAG89gDOmoKOSxMCABa-23">
          <mxGeometry relative="1" as="geometry" />
        </mxCell>
        <mxCell id="XEAG89gDOmoKOSxMCABa-35" value="" style="swimlane;childLayout=stackLayout;horizontal=1;fillColor=none;horizontalStack=1;resizeParent=1;resizeParentMax=0;resizeLast=0;collapsible=0;strokeColor=none;stackBorder=10;stackSpacing=-12;resizable=1;align=center;points=[];whiteSpace=wrap;html=1;" vertex="1" parent="1">
          <mxGeometry x="269" y="8" width="290" height="80" as="geometry" />
        </mxCell>
        <mxCell id="XEAG89gDOmoKOSxMCABa-36" value="Process" style="shape=step;perimeter=stepPerimeter;fixedSize=1;points=[];whiteSpace=wrap;html=1;" vertex="1" parent="XEAG89gDOmoKOSxMCABa-35">
          <mxGeometry x="10" y="33" width="100" height="37" as="geometry" />
        </mxCell>
        <mxCell id="XEAG89gDOmoKOSxMCABa-37" value="Saving" style="shape=step;perimeter=stepPerimeter;fixedSize=1;points=[];whiteSpace=wrap;html=1;" vertex="1" parent="XEAG89gDOmoKOSxMCABa-35">
          <mxGeometry x="98" y="33" width="100" height="37" as="geometry" />
        </mxCell>
        <mxCell id="XEAG89gDOmoKOSxMCABa-38" value="&lt;span style=&quot;color: rgb(255, 255, 0); font-size: 17px; font-weight: 700; text-wrap: nowrap; background-color: rgb(0, 204, 0);&quot;&gt;Table&lt;/span&gt;" style="shape=step;perimeter=stepPerimeter;fixedSize=1;points=[];whiteSpace=wrap;html=1;" vertex="1" parent="XEAG89gDOmoKOSxMCABa-35">
          <mxGeometry x="186" y="33" width="94" height="37" as="geometry" />
        </mxCell>
      </root>
    </mxGraphModel>
  </diagram>
</mxfile>
